<?xml version="1.0" encoding="UTF-8"?>
<svg id="NexT" xmlns="http://www.w3.org/2000/svg" version="1.1" xmlns:svg="http://www.w3.org/2000/svg" viewBox="0 0 512 512">
  <!-- Generator: Adobe Illustrator 29.0.1, SVG Export Plug-In . SVG Version: 2.1.0 Build 192)  -->
  <defs>
    <style>
      .st0 {
        fill: #fff;
      }

      .st1 {
        fill: #222;
      }
    </style>
  </defs>
  <path class="st0" d="M256.4,25.8L56.4,141.3l-.4,230.2,199.6,114.7,200-115.5.4-230.2L256.4,25.8Z"/>
  <path id="path3384" class="st1" d="M256.4,25.8L56.4,141.3l-.4,230.2,199.6,114.7,200-115.5.4-230.2L256.4,25.8Z"/>
  <path class="st0" d="M319.2,131.9v4.4c-4.9.4-10.3,2-14.8,4.3-22.9,11.4-13.7,47.1-12.9,68.9,1.5,40.2-1.2,73-26.4,103-5.8,6.9-13,12.5-17.9,20.3l22.9-5.9c18.1-4.6,36-2.4,52.8,6.5,6.1,3.2,11.4,7.9,17.5,11.1,3,.6,7.7-5.3,10.5-6.3s5,2.9,5.8,4.7l-37.3,38.4c-13.9-11.5-29.4-20.8-46.6-24-16.1-3-33.6-1.6-49.4,2.6-14.5,3.8-28,11-41.8,17l-2.4-5.3c12.7-10.5,26.7-24.6,33-41.4,5.7-15.3,4-33.7-11-40.5-4.4-2-8.8-2.1-13.1-3.5s-1.2,0-.9-.9,4.1-3.8,5.1-4.4c7.6-4.8,14.6-4.5,22.6-1.2.8-7.5.3-14.2-4-20.3-7.5-10.5-21.8-9.8-32.6-8.7,4.1-15.4,23.2-19.6,35.3-15.5-4-22.5,1.2-47.2,13-65.7s6.3-7.7,8.7-12.1c-9.1,3.9-17.5,7.1-27.5,6.3-11.4-.9-26.8-10.6-37.5-4.5s-8,8.9-11.4,13.6l-3.5-3.2c2.5-15.3,10.7-29.7,23.8-35.7,21.1-9.6,39.2,4.3,59.8,6.1s18.5-3.9,26.9-7.2c4.9,3.1.6,4.1-1.8,6.2-18.9,16.8-23.8,38.2-22.8,64.5,1.1,28.2,6.1,56.2,1.1,84.3-3.6,20.2-12.7,39.4-23.2,55.9,0,1,.6,1.2,1.4,1.1s7.1-5.7,8.2-6.7c22.9-20.9,32.5-46.8,33.5-80,1.2-40.1-18.1-106.7,27.7-123.2s9.4-3.2,11.3-3.2h18.1Z"/>
</svg>